<svg width="180" height="48" viewBox="0 0 180 48" fill="none" xmlns="http://www.w3.org/2000/svg">
<g clip-path="url(#clip0_32_12307)">
<path d="M23.0232 23.8721H27.9076L22.2152 41.8675H17.5144L14.1724 31.1804L10.4999 41.8675H6.09282L0.400391 23.8721H5.28486L8.95739 35.5507L12.3361 23.8721H15.9719L19.3507 35.5507L23.0232 23.8721Z" fill="#0056BC"/>
<path d="M43.6996 23.8723H48.0699V41.8677H43.6996L43.5894 38.5992C43.0752 39.7009 42.304 40.5823 41.3124 41.2067C40.3208 41.831 39.0722 42.1248 37.6032 42.1248C34.9957 42.1248 32.8289 41.2801 31.1395 39.554C29.4501 37.8279 28.6055 35.6244 28.6055 32.87C28.6055 31.5112 28.8258 30.2625 29.2665 29.0873C29.7072 27.9488 30.3315 26.9572 31.1395 26.1493C31.9475 25.3413 32.9023 24.717 34.0041 24.2763C35.1059 23.8356 36.3178 23.6152 37.5664 23.6152C39.0354 23.6152 40.2841 23.909 41.2757 24.5334C42.304 25.1577 43.0752 26.0391 43.5894 27.1409L43.6996 23.8723ZM34.555 36.5793C35.4364 37.4607 36.6116 37.9381 38.0439 37.9381C39.5129 37.9381 40.6514 37.4607 41.5695 36.5058C42.4509 35.551 42.8916 34.339 42.8916 32.7966C42.8549 31.2908 42.4142 30.0789 41.5328 29.1608C40.6514 28.2426 39.4762 27.7652 38.0806 27.7652C36.6483 27.7652 35.4731 28.2059 34.5917 29.124C33.7103 30.0422 33.2696 31.2541 33.2696 32.8333C33.2329 34.4492 33.6736 35.6979 34.555 36.5793Z" fill="#0056BC"/>
<path d="M69.4805 23.8723L63.0169 32.87L69.4805 41.8677H64.4492L59.4912 35.0001H57.3979V41.8677H52.7705V23.6152H57.4346V30.7399H59.528L64.4492 23.8723H69.4805Z" fill="#0056BC"/>
<path d="M84.7582 23.8723H89.1285V41.8677H84.7582L84.648 38.5992C84.1338 39.7009 83.3626 40.5823 82.371 41.2067C81.3794 41.831 80.1308 42.1248 78.6618 42.1248C76.0543 42.1248 73.8875 41.2801 72.1981 39.554C70.5455 37.8279 69.6641 35.6244 69.6641 32.87C69.6641 31.5112 69.8844 30.2625 70.3251 29.0873C70.7658 27.9488 71.3902 26.9572 72.1981 26.1493C73.0061 25.3413 73.9609 24.717 75.0627 24.2763C76.1644 23.8356 77.3764 23.6152 78.6251 23.6152C80.0941 23.6152 81.3427 23.909 82.3343 24.5334C83.3626 25.1577 84.1338 26.0391 84.648 27.1409L84.7582 23.8723ZM75.6136 36.5793C76.495 37.4607 77.6702 37.9381 79.1025 37.9381C80.5715 37.9381 81.71 37.4607 82.6281 36.5058C83.5095 35.551 83.9502 34.339 83.9502 32.7966C83.9135 31.2908 83.4728 30.0789 82.5914 29.1608C81.71 28.2426 80.5348 27.7652 79.1392 27.7652C77.7069 27.7652 76.5317 28.2059 75.6503 29.124C74.7689 30.0422 74.3282 31.2541 74.3282 32.8333C74.2915 34.4492 74.7322 35.6979 75.6136 36.5793Z" fill="#0056BC"/>
<path d="M101.101 37.9385C102.13 37.9385 103.048 37.6814 103.819 37.1673C104.627 36.6531 105.178 35.9186 105.545 35.0372L109.916 35.6615C109.401 37.6814 108.373 39.2973 106.757 40.4358C105.141 41.611 103.268 42.1619 101.101 42.1619C99.3754 42.1619 97.8329 41.7947 96.4373 41.0602C95.0418 40.3256 93.94 39.2606 93.0953 37.8283C92.2506 36.396 91.8467 34.7434 91.8467 32.9071C91.8467 31.0341 92.2506 29.3815 93.0953 27.9859C93.94 26.5536 95.0418 25.4886 96.4373 24.7541C97.8329 24.0196 99.3754 23.6523 101.101 23.6523C103.268 23.6523 105.141 24.2399 106.757 25.3784C108.373 26.5536 109.438 28.1328 109.916 30.1527L105.545 30.7771C105.178 29.8589 104.627 29.1611 103.819 28.647C103.011 28.1328 102.13 27.8758 101.101 27.8758C99.7059 27.8758 98.5307 28.3532 97.6125 29.2713C96.6944 30.1895 96.2537 31.4381 96.2537 32.9071C96.2537 34.4129 96.6944 35.6248 97.6125 36.5429C98.5307 37.4611 99.7059 37.9385 101.101 37.9385Z" fill="#0056BC"/>
<path d="M113.147 23.8721H117.59V40.3985C117.59 42.3816 117.076 43.9241 116.085 45.0259C115.093 46.1276 112.89 46.9723 110.87 46.9723L109.988 43.8507C111.163 43.5201 112.118 42.6754 112.522 42.198C112.926 41.7206 113.11 40.9861 113.11 39.921V23.8721H113.147Z" fill="#0056BC"/>
<path d="M174.552 35.514C174.552 36.5423 174.772 37.3135 175.14 37.791C175.544 38.2684 176.792 38.8193 177.417 38.7826C178.041 38.7458 178.519 38.6357 178.886 38.4153L179.767 41.2799C178.776 41.9409 177.453 42.3082 175.838 42.3082C174.001 42.3082 172.606 41.7573 171.614 40.6555C170.623 39.5538 170.108 38.0113 170.108 36.0282V23.8721H174.552V35.514Z" fill="#0056BC"/>
<path d="M138.635 32.87C138.635 33.4576 138.598 33.9718 138.524 34.339H124.789C125.046 35.551 125.597 36.5058 126.405 37.2036C127.25 37.9014 128.205 38.2319 129.38 38.2319C131.326 38.2319 132.685 37.424 133.493 35.7713L137.716 36.7996C137.129 38.4523 136.101 39.7377 134.558 40.6925C133.052 41.6474 131.326 42.1248 129.38 42.1248C127.69 42.1248 126.111 41.7575 124.716 40.9863C123.32 40.2151 122.182 39.15 121.374 37.7178C120.529 36.2855 120.125 34.6696 120.125 32.87C120.125 31.0705 120.529 29.4546 121.374 28.0223C122.218 26.59 123.32 25.525 124.716 24.7537C126.111 23.9825 127.654 23.6152 129.38 23.6152C131.106 23.6152 132.648 23.9825 134.044 24.7537C135.439 25.525 136.541 26.6267 137.386 28.0223C138.231 29.4546 138.635 31.0705 138.635 32.87ZM129.38 27.5081C128.278 27.5081 127.323 27.8386 126.515 28.4997C125.707 29.1608 125.156 30.0422 124.863 31.2174H133.97C133.713 30.0422 133.162 29.124 132.355 28.4997C131.547 27.8019 130.555 27.5081 129.38 27.5081Z" fill="#0056BC"/>
<path d="M144.547 41.5002C144.033 42.0144 143.445 42.2347 142.748 42.2347C142.05 42.2347 141.462 41.9776 140.948 41.4635C140.434 40.9493 140.177 40.3617 140.177 39.6639C140.177 38.9661 140.434 38.3785 140.911 37.8644C141.425 37.387 142.013 37.1299 142.711 37.1299C143.409 37.1299 143.996 37.387 144.51 37.8644C145.025 38.3785 145.245 38.9662 145.245 39.6272C145.318 40.3984 145.061 40.986 144.547 41.5002Z" fill="#0056BC"/>
<path d="M152.259 23.8723L152.369 27.1409C152.883 26.0391 153.655 25.1577 154.646 24.5334C155.638 23.909 156.887 23.6152 158.356 23.6152C159.641 23.6152 160.816 23.8356 161.918 24.2763C163.02 24.717 163.975 25.3413 164.783 26.1493C165.59 26.9572 166.215 27.9488 166.655 29.0873C167.096 30.2625 167.317 31.5112 167.317 32.87C167.317 35.6244 166.472 37.8647 164.783 39.554C163.093 41.2801 160.926 42.1248 158.319 42.1248C156.85 42.1248 155.601 41.831 154.61 41.2067C153.581 40.5823 152.81 39.7009 152.296 38.5992V48.0009H147.815V23.8723H152.259ZM154.389 36.5058C155.271 37.4607 156.446 37.9381 157.915 37.9381C159.384 37.9381 160.522 37.4974 161.441 36.5793C162.322 35.6979 162.763 34.4492 162.763 32.8333C162.763 31.2541 162.322 30.0054 161.441 29.124C160.559 28.2059 159.384 27.7652 157.915 27.7652C156.483 27.7652 155.344 28.2426 154.463 29.1608C153.581 30.0789 153.104 31.2908 153.104 32.7966C153.03 34.339 153.471 35.5877 154.389 36.5058Z" fill="#0056BC"/>
<path d="M109.217 17.9954C107.198 11.899 101.542 7.82249 95.0782 7.82249C88.6145 7.82249 82.9588 11.899 80.9389 17.9954H72.8594C75.0629 7.52869 84.3177 0 95.0782 0C105.839 0 115.094 7.52869 117.297 17.9954H109.217Z" fill="#FFCC2E"/>
</g>
<defs>
<clipPath id="clip0_32_12307">
<rect width="180" height="48" fill="white"/>
</clipPath>
</defs>
</svg>
